<?xml version="1.0" encoding="UTF-8" standalone="no"?>
<!-- Created with Inkscape (http://www.inkscape.org/) -->

<svg
   width="143.13844mm"
   height="128.00156mm"
   viewBox="0 0 143.13844 128.00156"
   version="1.1"
   id="svg1"
   xml:space="preserve"
   inkscape:version="1.4 (86a8ad7, 2024-10-11)"
   sodipodi:docname="Herz.svg"
   xmlns:inkscape="http://www.inkscape.org/namespaces/inkscape"
   xmlns:sodipodi="http://sodipodi.sourceforge.net/DTD/sodipodi-0.dtd"
   xmlns="http://www.w3.org/2000/svg"
   xmlns:svg="http://www.w3.org/2000/svg"><sodipodi:namedview
     id="namedview1"
     pagecolor="#ffffff"
     bordercolor="#000000"
     borderopacity="0.25"
     inkscape:showpageshadow="2"
     inkscape:pageopacity="0.0"
     inkscape:pagecheckerboard="0"
     inkscape:deskcolor="#d1d1d1"
     inkscape:document-units="mm"
     inkscape:zoom="0.11313833"
     inkscape:cx="-711.51838"
     inkscape:cy="477.29183"
     inkscape:window-width="1280"
     inkscape:window-height="730"
     inkscape:window-x="-6"
     inkscape:window-y="-6"
     inkscape:window-maximized="1"
     inkscape:current-layer="layer1" /><defs
     id="defs1" /><g
     inkscape:label="Ebene 1"
     inkscape:groupmode="layer"
     id="layer1"
     transform="translate(-29.46609,-79.919782)"><path
       style="fill:#000000"
       d="M 99.295356,204.57034 C 93.095563,191.91289 80.959074,178.27386 65.616664,166.7221 c -2.255573,-1.69828 -4.577292,-3.40056 -5.159375,-3.78283 -0.582084,-0.38228 -2.665677,-1.73333 -4.630209,-3.00234 -8.747545,-5.65059 -15.459068,-13.02919 -20.332674,-22.3536 -6.577941,-12.58521 -7.824161,-25.44821 -3.484997,-35.97079 3.148392,-7.634929 9.364537,-14.189044 17.070796,-17.998929 5.681273,-2.808755 8.968354,-3.580097 15.213542,-3.569986 4.8203,0.0078 7.147297,0.378385 11.1125,1.769699 10.662307,3.741198 20.517733,14.082005 24.621573,25.834186 0.46773,1.33945 0.8782,2.40195 0.91216,2.36111 0.0339,-0.0408 0.44923,-1.14581 0.92285,-2.45549 3.59928,-9.953164 11.13241,-18.909076 19.8455,-23.593726 6.57874,-3.537099 14.41235,-4.836205 21.4674,-3.560096 12.52271,2.265093 23.50585,11.315501 27.57964,22.726372 1.34746,3.7743 1.83924,6.92236 1.84894,11.83578 0.01,5.07537 -0.32229,7.37894 -1.81023,12.54845 -2.68326,9.32239 -7.7907,17.75525 -15.20862,25.11086 -3.3602,3.33198 -4.34781,4.10092 -10.59379,8.24818 -16.32052,10.83664 -29.10603,23.00832 -37.53889,35.73665 -1.40532,2.12115 -3.3864,5.5341 -4.40239,7.58433 -1.016,2.05023 -1.9068,3.72936 -1.97956,3.7314 -0.0728,0.002 -0.87172,-1.5059 -1.775474,-3.35099 z"
       id="path1" /></g></svg>
